<svg xmlns="http://www.w3.org/2000/svg" width="28" height="28">
    <path fill="#FFF" fill-rule="evenodd" stroke="#757575" d="M14 3.5c5.799 0 10.5 4.701 10.5 10.5S19.799 24.5 14 24.5 3.5 19.799 3.5 14 8.201 3.5 14 3.5z"/>
    <path fill="#757575" fill-rule="evenodd" d="M19.373 15.646h-10c-.828 0-1.5-.672-1.5-1.5s.672-1.5 1.5-1.5h10c.829 0 1.5.672 1.5 1.5s-.671 1.5-1.5 1.5z"/>
    <path fill="#757575" fill-rule="evenodd" d="M14.01 20.498c-.828 0-1.5-.671-1.5-1.5v-10c0-.828.672-1.5 1.5-1.5s1.5.672 1.5 1.5v10c0 .829-.672 1.5-1.5 1.5z"/>
</svg>
