<svg xmlns="http://www.w3.org/2000/svg" width="21" height="21">
    <path fill="#4E4E4E" fill-rule="evenodd" d="M10.5 0C16.299 0 21 4.701 21 10.5S16.299 21 10.5 21 0 16.299 0 10.5 4.701 0 10.5 0z"/>
    <path fill="#FFF" fill-rule="evenodd" d="M15.367 15.198c-.586.586-1.536.586-2.122 0L5.174 7.127c-.585-.586-.585-1.535 0-2.121.586-.586 1.536-.586 2.122 0l1 1 7.071 7.071c.586.586.586 1.536 0 2.121z"/>
    <path fill="#FFF" fill-rule="evenodd" d="M15.214 7.766l-8.071 8.071c-.586.586-1.535.586-2.121 0-.586-.586-.586-1.536 0-2.121l8.071-8.071c.586-.586 1.535-.586 2.121 0 .586.586.586 1.535 0 2.121z"/>
</svg>
