<svg xmlns="http://www.w3.org/2000/svg" width="28" height="28">
    <path fill="#FFF" fill-rule="evenodd" stroke="#757575" d="M14 3.5c5.799 0 10.5 4.701 10.5 10.5S19.799 24.5 14 24.5 3.5 19.799 3.5 14 8.201 3.5 14 3.5z"/>
    <path fill="#757575" fill-rule="evenodd" d="M16.831 19.768c-.585.586-1.535.586-2.121 0l-4.949-4.95c-.586-.586-.586-1.535 0-2.121.585-.586 1.535-.586 2.121 0l4.949 4.95c.586.585.586 1.535 0 2.121z"/>
    <path fill="#757575" fill-rule="evenodd" d="M16.679 10.507l-4.95 4.95c-.586.586-1.535.586-2.121 0-.586-.586-.586-1.536 0-2.121l4.95-4.95c.586-.586 1.535-.586 2.121 0 .586.586.586 1.535 0 2.121z"/>
</svg>
