<svg xmlns="http://www.w3.org/2000/svg" width="23.5" height="23.5">
    <path fill="#FFF" fill-rule="evenodd" stroke="#757575" d="M22.5 9.656v3.688h-2.416c-.227 1.06-.647 2.048-1.219 2.928l1.709 1.71-2.592 2.592-1.71-1.709c-.88.572-1.868.992-2.928 1.219V22.5H9.656v-2.416c-1.06-.227-2.048-.647-2.928-1.219l-1.71 1.709-2.593-2.592 1.71-1.71c-.572-.88-.992-1.868-1.219-2.928H.5V9.656h2.416c.227-1.06.647-2.048 1.219-2.928l-1.71-1.71 2.593-2.593 1.71 1.71c.88-.572 1.868-.992 2.928-1.219V.5h3.688v2.416c1.06.227 2.048.647 2.928 1.219l1.71-1.71 2.592 2.593-1.709 1.71c.572.88.992 1.868 1.219 2.928H22.5zm-11-1.676c-1.944 0-3.52 1.576-3.52 3.52s1.576 3.52 3.52 3.52 3.52-1.576 3.52-3.52-1.576-3.52-3.52-3.52z"/>
</svg>
