<svg width="70" height="50" viewBox="0 0 70 50" fill="none" xmlns="http://www.w3.org/2000/svg">
<path d="M65.5827 0.937546H4.41718C1.97761 0.937546 0 2.91516 0 5.35473V44.6698C0 47.1094 1.97761 49.0876 4.41718 49.0876H65.5827C68.0222 49.0876 69.9999 47.1094 69.9999 44.6698V5.35473C69.9999 2.91516 68.0222 0.937546 65.5827 0.937546V0.937546Z" fill="#61B4D8"/>
<path d="M0 8.47736H69.9999V19.6471H0V8.47736Z" fill="#2E5968"/>
<path d="M59.1489 37.1653C59.1489 40.4807 56.461 43.1692 53.1451 43.1692C49.8291 43.1692 47.1412 40.4807 47.1412 37.1653C47.1412 33.8493 49.8291 31.1614 53.1451 31.1614C56.461 31.1614 59.1489 33.8493 59.1489 37.1653Z" fill="#F7526E"/>
<path d="M65.1528 37.1653C65.1528 40.4807 62.4649 43.1692 59.1489 43.1692C55.8329 43.1692 53.145 40.4807 53.145 37.1653C53.145 33.8493 55.8329 31.1614 59.1489 31.1614C62.4649 31.1614 65.1528 33.8493 65.1528 37.1653Z" fill="#F4D553"/>
<path d="M56.147 31.9662C54.3531 33.0045 53.145 34.9431 53.145 37.1653C53.145 39.387 54.3531 41.3256 56.147 42.3638C57.9409 41.3256 59.1489 39.387 59.1489 37.1653C59.1489 34.9431 57.9409 33.0045 56.147 31.9662Z" fill="#F2A755"/>
<path d="M13.518 26.8949H5.69888C5.10715 26.8949 4.62756 26.4148 4.62756 25.823C4.62756 25.2313 5.10715 24.7517 5.69888 24.7517H13.518C14.1098 24.7517 14.5893 25.2313 14.5893 25.823C14.5893 26.4148 14.1098 26.8949 13.518 26.8949Z" fill="#2E5968"/>
<path d="M37.7194 26.8949H29.9002C29.3085 26.8949 28.8289 26.4148 28.8289 25.823C28.8289 25.2313 29.3085 24.7517 29.9002 24.7517H37.7194C38.3111 24.7517 38.7907 25.2313 38.7907 25.823C38.7907 26.4148 38.3111 26.8949 37.7194 26.8949Z" fill="#2E5968"/>
<path d="M25.6187 26.8949H17.7996C17.2079 26.8949 16.7283 26.4148 16.7283 25.823C16.7283 25.2313 17.2079 24.7517 17.7996 24.7517H25.6187C26.2105 24.7517 26.69 25.2313 26.69 25.823C26.69 26.4148 26.2105 26.8949 25.6187 26.8949Z" fill="#2E5968"/>
<path d="M49.82 26.8949H42.0014C41.4091 26.8949 40.9296 26.4148 40.9296 25.823C40.9296 25.2313 41.4091 24.7517 42.0014 24.7517H49.82C50.4118 24.7517 50.8913 25.2313 50.8913 25.823C50.8913 26.4148 50.4118 26.8949 49.82 26.8949Z" fill="#2E5968"/>
<path d="M30.2143 37.1947H5.69888C5.10715 37.1947 4.62756 36.7145 4.62756 36.1228C4.62756 35.5311 5.10715 35.0515 5.69888 35.0515H30.2143C30.806 35.0515 31.2856 35.5311 31.2856 36.1228C31.2856 36.7145 30.806 37.1947 30.2143 37.1947Z" fill="white"/>
<path d="M19.8819 42.2207H5.69888C5.10715 42.2207 4.62756 41.7411 4.62756 41.1493C4.62756 40.5576 5.10715 40.078 5.69888 40.078H19.8819C20.4741 40.078 20.9537 40.5576 20.9537 41.1493C20.9537 41.7411 20.4741 42.2207 19.8819 42.2207Z" fill="white"/>
</svg>
