<svg xmlns="http://www.w3.org/2000/svg" width="27" height="26.5">
    <path fill="#D6D7D6" fill-rule="evenodd" stroke="#949494" d="M.5 2h26v24H.5V2z"/>
    <path fill="#949494" fill-rule="evenodd" d="M20.5 24v-4h4v4h-4zm0-10h4v4h-4v-4zm0-6h4v4h-4V8zm0-8h.999v5H20.5V0zm-6 20h4v4h-4v-4zm0-6h4v4h-4v-4zm0-6h4v4h-4V8zm-6 12h4v4h-4v-4zm0-6h4v4h-4v-4zm0-6h4v4h-4V8zm-6 12h4v4h-4v-4zm0-6h4v4h-4v-4zm0-6h4v4h-4V8zm3-8h1v5h-1V0z"/>
    <path fill="#949494" fill-rule="evenodd" d="M21 6c-.829 0-1.5-.672-1.5-1.5S20.171 3 21 3c.828 0 1.5.672 1.5 1.5S21.828 6 21 6zM6 6c-.829 0-1.5-.672-1.5-1.5S5.171 3 6 3c.828 0 1.5.672 1.5 1.5S6.828 6 6 6z"/>
</svg>
