<svg width="512" height="512" viewBox="0 0 512 512" fill="none" xmlns="http://www.w3.org/2000/svg">
<g clip-path="url(#clip0)">
<path d="M453.332 512H58.668C26.3047 512 0 485.695 0 453.332V101.332C0 68.9688 26.3047 42.668 58.668 42.668H453.332C485.695 42.668 512 68.9688 512 101.332V453.332C512 485.695 485.695 512 453.332 512ZM58.668 74.668C43.9688 74.668 32 86.6328 32 101.332V453.332C32 468.031 43.9688 480 58.668 480H453.332C468.031 480 480 468.031 480 453.332V101.332C480 86.6328 468.031 74.668 453.332 74.668H58.668Z" fill="black"/>
<path d="M496 202.668H16C7.16797 202.668 0 195.5 0 186.668C0 177.836 7.16797 170.668 16 170.668H496C504.832 170.668 512 177.836 512 186.668C512 195.5 504.832 202.668 496 202.668Z" fill="black"/>
<path d="M122.668 128C113.836 128 106.668 120.832 106.668 112V16C106.668 7.16797 113.836 0 122.668 0C131.5 0 138.668 7.16797 138.668 16V112C138.668 120.832 131.5 128 122.668 128Z" fill="black"/>
<path d="M389.332 128C380.5 128 373.332 120.832 373.332 112V16C373.332 7.16797 380.5 0 389.332 0C398.164 0 405.332 7.16797 405.332 16V112C405.332 120.832 398.164 128 389.332 128Z" fill="black"/>
</g>
<defs>
<clipPath id="clip0">
<rect width="512" height="512" fill="white"/>
</clipPath>
</defs>
</svg>
