<svg width="389" height="389" viewBox="0 0 389 389" fill="none" xmlns="http://www.w3.org/2000/svg">
<g clip-path="url(#clip0)">
<path d="M201.173 307.042C189.882 306.868 178.996 302.809 170.348 295.548L113.401 245.393C104.44 237.02 90.737 236.357 81.009 243.826L0.0300068 303.384V342.045C-0.551993 352.416 7.38501 361.295 17.756 361.877C18.29 361.907 18.826 361.914 19.361 361.898H306.185C317.679 361.898 329.173 353.539 329.173 342.045V240.691L226.25 300.25C218.684 304.798 210.001 307.15 201.173 307.042Z" fill="white"/>
<path d="M196.993 205.687C209.689 205.687 219.981 195.395 219.981 182.699C219.981 170.003 209.689 159.711 196.993 159.711C184.297 159.711 174.005 170.003 174.005 182.699C174.005 195.395 184.297 205.687 196.993 205.687Z" fill="white"/>
<path d="M383.508 67.238C380.173 62.694 375.021 59.832 369.402 59.401L84.667 26.487C79.116 26.022 73.576 27.499 68.994 30.667C64.936 34.191 62.177 38.974 61.157 44.251L56.455 85.002H306.186C329.995 85.542 349.247 104.564 350.072 128.365V312.789C350.072 311.744 354.774 310.699 356.864 308.609C361.19 305.212 363.698 300.003 363.656 294.503L388.21 82.389C388.753 76.91 387.057 71.445 383.508 67.238Z" fill="white"/>
<path d="M306.185 105.899H19.361C7.86701 105.899 0.030014 116.87 0.030014 128.364V277.262L68.993 227.107C86.499 214.121 110.717 215.212 126.985 229.719L184.454 279.874C193.12 287.231 205.498 288.28 215.278 282.486L329.172 216.135V128.364C328.382 116.099 318.465 106.408 306.185 105.899ZM196.993 226.584C172.756 226.584 153.107 206.936 153.107 182.698C153.107 158.461 172.755 138.812 196.993 138.812C221.23 138.812 240.879 158.46 240.879 182.698C240.879 206.936 221.231 226.584 196.993 226.584Z" fill="white"/>
</g>
<defs>
<clipPath id="clip0">
<rect width="388.309" height="388.309" fill="white"/>
</clipPath>
</defs>
</svg>
