<svg xmlns="http://www.w3.org/2000/svg" width="30" height="30">
    <path fill="#F8F8F8" fill-rule="evenodd" d="M0 0h29v29H0V0z"/>
    <path fill="none" fill-rule="evenodd" stroke="#4D4D4D" stroke-width="2" d="M3 6h18a2 2 0 0 1 2 2v18a2 2 0 0 1-2 2H3a2 2 0 0 1-2-2V8a2 2 0 0 1 2-2z"/>
    <path fill="#4D4D4D" fill-rule="evenodd" d="M26.985 1.308l.707.707a.999.999 0 0 1 0 1.414L14.257 16.864a1 1 0 0 1-1.414 0l-.707-.707a1 1 0 0 1 0-1.414L25.571 1.308a.999.999 0 0 1 1.414 0zM9.652 19.338l1.065-3.19 2.124 2.124-3.189 1.066z"/>
</svg>
