<svg width="60" height="60" viewBox="0 0 60 60" fill="none" xmlns="http://www.w3.org/2000/svg">
<path d="M53.1797 51.0703H6.82031C3.07031 51.0703 0.0234375 48.0234 0.0234375 44.2734V11.7773C0.0234375 8.02734 3.07031 4.98047 6.82031 4.98047H53.1914C56.9414 4.98047 59.9883 8.02734 59.9883 11.7773V44.2734C59.9766 48.0234 56.918 51.0703 53.1797 51.0703ZM6.82031 6.85547C4.10156 6.85547 1.89844 9.05859 1.89844 11.7773V44.2734C1.89844 46.9922 4.10156 49.1953 6.82031 49.1953H53.1797C55.8867 49.1953 58.1016 46.9805 58.1133 44.2734V11.7773C58.1133 9.05859 55.9102 6.85547 53.1914 6.85547H6.82031Z" fill="#4D4D4D"/>
<path d="M59.0391 16.7695H0.960938V18.6445H59.0391V16.7695Z" fill="#4D4D4D"/>
<path d="M44.5664 9.73828C44.0508 9.73828 43.6289 9.31641 43.6289 8.80078V2.16797C43.6289 1.65234 44.0508 1.23047 44.5664 1.23047C45.082 1.23047 45.5039 1.65234 45.5039 2.16797V8.80078C45.5039 9.31641 45.082 9.73828 44.5664 9.73828Z" fill="#4D4D4D"/>
<path d="M30 9.73828C29.4844 9.73828 29.0625 9.31641 29.0625 8.80078V2.16797C29.0625 1.65234 29.4844 1.23047 30 1.23047C30.5156 1.23047 30.9375 1.65234 30.9375 2.16797V8.80078C30.9375 9.31641 30.5156 9.73828 30 9.73828Z" fill="#4D4D4D"/>
<path d="M15.4453 9.73828C14.9297 9.73828 14.5078 9.31641 14.5078 8.80078V2.16797C14.5078 1.65234 14.9297 1.23047 15.4453 1.23047C15.9609 1.23047 16.3828 1.65234 16.3828 2.16797V8.80078C16.3828 9.31641 15.9609 9.73828 15.4453 9.73828Z" fill="#4D4D4D"/>
<path d="M25.6406 26.9062H10.0547C9.53906 26.9062 9.11719 26.4844 9.11719 25.9688C9.11719 25.4531 9.53906 25.0312 10.0547 25.0312H25.6406C26.1563 25.0312 26.5781 25.4531 26.5781 25.9688C26.5781 26.4844 26.1563 26.9062 25.6406 26.9062Z" fill="#4D4D4D"/>
<path d="M25.6406 34.2656H10.0547C9.53906 34.2656 9.11719 33.8438 9.11719 33.3281C9.11719 32.8125 9.53906 32.3906 10.0547 32.3906H25.6406C26.1563 32.3906 26.5781 32.8125 26.5781 33.3281C26.5781 33.8438 26.1563 34.2656 25.6406 34.2656Z" fill="#4D4D4D"/>
<path d="M25.6406 41.625H10.0547C9.53906 41.625 9.11719 41.2031 9.11719 40.6875C9.11719 40.1719 9.53906 39.75 10.0547 39.75H25.6406C26.1563 39.75 26.5781 40.1719 26.5781 40.6875C26.5781 41.2031 26.1563 41.625 25.6406 41.625Z" fill="#4D4D4D"/>
<path d="M45.375 58.4531C53.4522 58.4531 60 51.9053 60 43.8281C60 35.751 53.4522 29.2031 45.375 29.2031C37.2978 29.2031 30.75 35.751 30.75 43.8281C30.75 51.9053 37.2978 58.4531 45.375 58.4531Z" fill="#4D4D4D"/>
<path d="M46.5469 43.7344C45.6797 43.2539 44.7773 42.7617 44.7773 42.2812C44.7773 41.8125 45.2813 41.4258 45.8906 41.4258C46.5117 41.4258 47.0039 41.8125 47.0039 42.2812C47.0039 42.7617 47.5078 43.1367 48.1172 43.1367C48.7383 43.1367 49.2305 42.75 49.2305 42.2812C49.2305 41.1562 48.293 40.207 46.9922 39.8438V39.2695C46.9922 38.7891 46.4883 38.4141 45.8789 38.4141C45.2578 38.4141 44.7656 38.8008 44.7656 39.2695V39.8438C43.4648 40.1953 42.5273 41.1562 42.5273 42.2812C42.5273 43.6406 44.0273 44.4609 45.2344 45.1289C46.1016 45.6094 47.0039 46.1016 47.0039 46.582C47.0039 47.0508 46.5 47.4375 45.8906 47.4375C45.2695 47.4375 44.7773 47.0508 44.7773 46.582C44.7773 46.1016 44.2734 45.7266 43.6641 45.7266C43.0547 45.7266 42.5508 46.1133 42.5508 46.582C42.5508 47.707 43.4883 48.6562 44.7891 49.0195V49.5938C44.7891 50.0742 45.293 50.4492 45.9023 50.4492C46.5234 50.4492 47.0156 50.0625 47.0156 49.5938V49.0195C48.3164 48.668 49.2539 47.707 49.2539 46.582C49.2422 45.2227 47.7422 44.4023 46.5469 43.7344Z" fill="white"/>
</svg>
