<svg width="20" height="20" viewBox="0 0 20 20" fill="none" xmlns="http://www.w3.org/2000/svg">
<path d="M9.14319 1.42372C9.53185 0.777901 10.4681 0.777901 10.8568 1.42372L13.4023 5.65347C13.5419 5.88548 13.7697 6.05095 14.0335 6.11204L18.8428 7.22589C19.5771 7.39596 19.8665 8.28643 19.3724 8.85564L16.1362 12.5836C15.9587 12.7881 15.8717 13.0558 15.8951 13.3256L16.322 18.2438C16.3871 18.9947 15.6297 19.545 14.9356 19.251L10.3901 17.3253C10.1408 17.2196 9.85924 17.2196 9.60991 17.3253L5.06438 19.251C4.37034 19.545 3.61286 18.9947 3.67803 18.2438L4.10486 13.3256C4.12827 13.0558 4.04128 12.7881 3.86377 12.5836L0.627649 8.85564C0.133541 8.28643 0.422873 7.39596 1.15719 7.22589L5.96651 6.11204C6.23032 6.05095 6.45807 5.88548 6.59769 5.65347L9.14319 1.42372Z" fill="#FFC700"/>
</svg>
