<svg width="48" height="48" viewBox="0 0 48 48" fill="none" xmlns="http://www.w3.org/2000/svg">
<path d="M42.7269 33.8262C39.7028 31.27 37.9688 27.5339 37.9688 23.5759V18C37.9688 10.9622 32.7407 5.13611 25.9688 4.16016V1.99988C25.9688 0.893921 25.0726 0 23.9689 0C22.8647 0 21.9686 0.893921 21.9686 1.99988V4.16016C15.1948 5.13611 9.96863 10.9622 9.96863 18V23.5759C9.96863 27.5339 8.23462 31.27 5.19287 33.8419C4.41467 34.5081 3.96863 35.476 3.96863 36.4999C3.96863 38.4302 5.53857 40.0001 7.46887 40.0001H40.4689C42.3988 40.0001 43.9688 38.4302 43.9688 36.4999C43.9688 35.476 43.5227 34.5081 42.7269 33.8262Z" fill="#4D4D4D"/>
<path d="M23.9689 48C27.5907 48 30.6207 45.4178 31.3169 42H16.6208C17.3167 45.4178 20.3467 48 23.9689 48Z" fill="#4D4D4D"/>
</svg>
